<?xml version="1.0" standalone="no"?>
<!DOCTYPE svg PUBLIC "-//W3C//DTD SVG 20010904//EN"
 "http://www.w3.org/TR/2001/REC-SVG-20010904/DTD/svg10.dtd">
<svg version="1.0" xmlns="http://www.w3.org/2000/svg"
 width="520.000000pt" height="520.000000pt" viewBox="0 0 520.000000 520.000000"
 preserveAspectRatio="xMidYMid meet">
<metadata>
Created by potrace 1.11, written by Peter Selinger 2001-2013
</metadata>
<g transform="translate(0.000000,520.000000) scale(0.100000,-0.100000)"
fill="#000000" stroke="none">
<path d="M0 2600 l0 -2600 1100 0 1100 0 0 60 0 60 -625 0 -625 0 0 98 0 97
233 59 c289 73 310 83 348 158 18 36 19 92 19 1922 0 1311 -3 1893 -11 1913
-13 36 -46 71 -84 91 -16 8 -136 43 -265 77 l-235 62 -3 96 -3 97 626 0 625 0
0 205 0 205 -1100 0 -1100 0 0 -2600z"/>
</g>
</svg>
